<svg width="36" height="36" viewBox="0 0 36 36" fill="none" xmlns="http://www.w3.org/2000/svg">
<rect width="36" height="36" rx="12" fill="url(#paint0_linear_3531_10804)"/>
<path d="M18 11C19.5 9.5 20.74 9 22.5 9C23.9587 9 25.3576 9.57946 26.3891 10.6109C27.4205 11.6424 28 13.0413 28 14.5C28 16.79 26.49 18.54 25 20L18 27L11 20C9.5 18.55 8 16.8 8 14.5C8 13.0413 8.57946 11.6424 9.61091 10.6109C10.6424 9.57946 12.0413 9 13.5 9C15.26 9 16.5 9.5 18 11ZM18 11L15.04 13.96C14.8368 14.1617 14.6756 14.4016 14.5655 14.6659C14.4555 14.9302 14.3988 15.2137 14.3988 15.5C14.3988 15.7863 14.4555 16.0698 14.5655 16.3341C14.6756 16.5984 14.8368 16.8383 15.04 17.04C15.86 17.86 17.17 17.89 18.04 17.11L20.11 15.21C20.6289 14.7392 21.3044 14.4784 22.005 14.4784C22.7056 14.4784 23.3811 14.7392 23.9 15.21L26.86 17.87M24 21L22 19M21 24L19 22" stroke="white" stroke-width="2" stroke-linecap="round" stroke-linejoin="round"/>
<path fill-rule="evenodd" clip-rule="evenodd" d="M27.3375 24.0107C27.3094 24.0155 27.2438 24.0281 27.1922 24.0386C27.1406 24.0502 27.0581 24.0714 27.0094 24.0878C26.9606 24.1041 26.8744 24.1398 26.8172 24.1677C26.76 24.1957 26.6756 24.2448 26.6297 24.2766C26.5838 24.3084 26.5153 24.3623 26.4797 24.396C26.4431 24.4288 26.3869 24.4865 26.3541 24.5241C26.3213 24.5607 26.2678 24.633 26.235 24.683C26.2031 24.7331 26.1572 24.816 26.1347 24.8661C26.1122 24.9161 26.0822 24.9922 26.0681 25.0346C26.055 25.077 26.0353 25.1502 26.0259 25.1984C26.0156 25.2456 26.0025 25.3323 25.9959 25.391C25.9903 25.4507 25.9875 25.5509 25.9903 25.6222C25.9931 25.6915 26.0063 25.8081 26.0194 25.8822C26.0325 25.9564 26.0559 26.0624 26.0709 26.1182C26.0859 26.1741 26.1178 26.2733 26.1422 26.3398C26.1666 26.4062 26.2106 26.5141 26.2416 26.5806C26.2725 26.647 26.3278 26.753 26.3644 26.8166C26.4009 26.8801 26.4591 26.9755 26.4938 27.0285C26.5284 27.0815 26.5866 27.1643 26.6213 27.2125C26.6569 27.2616 26.7309 27.354 26.7853 27.4195C26.8397 27.485 26.9128 27.5717 26.9484 27.6112C26.9831 27.6507 27.1219 27.8019 27.2569 27.9474C27.3919 28.0919 27.6188 28.3279 27.7622 28.4723C28.0022 28.7112 28.0219 28.7343 28.0059 28.7459C27.9966 28.7536 27.9562 28.7758 27.9169 28.7969C27.8766 28.8172 27.8109 28.848 27.7716 28.8644C27.7313 28.8807 27.6628 28.9058 27.6188 28.9212C27.5747 28.9356 27.4988 28.9568 27.45 28.9674C27.4013 28.978 27.3169 28.9944 27.2625 29.0021C27.2025 29.0117 27.0994 29.0175 26.9981 29.0175C26.8941 29.0175 26.7919 29.0117 26.7262 29.0021C26.6681 28.9934 26.565 28.9722 26.4984 28.9549C26.4319 28.9376 26.3344 28.9077 26.2828 28.8875C26.2313 28.8673 26.1431 28.8278 26.0859 28.7979C26.0287 28.769 25.9472 28.7228 25.9031 28.6948C25.8591 28.6669 25.7831 28.612 25.7344 28.5735C25.6856 28.534 25.6013 28.4569 25.5469 28.4011C25.4925 28.3452 25.4119 28.2498 25.3678 28.1892C25.3237 28.1285 25.2684 28.0456 25.245 28.0061C25.2216 27.9666 25.1878 27.904 25.1691 27.8665C25.1512 27.8289 25.1203 27.7596 25.1016 27.7124C25.0819 27.6652 25.0538 27.5823 25.0388 27.5293C25.0228 27.4764 25.0003 27.3858 24.9881 27.3271C24.9759 27.2683 24.9609 27.1537 24.9544 27.0718C24.9459 26.9591 24.9459 26.8859 24.9534 26.7732C24.96 26.6913 24.9731 26.5787 24.9844 26.5228C24.9956 26.4669 25.0153 26.3822 25.0284 26.335C25.0416 26.2878 25.0687 26.2049 25.0894 26.1519C25.11 26.099 25.1503 26.0084 25.1794 25.9497C25.2084 25.8909 25.2563 25.8071 25.2853 25.7618C25.3134 25.7166 25.3641 25.6453 25.3969 25.6029C25.4297 25.5605 25.5019 25.4787 25.5572 25.4199C25.6163 25.3563 25.6669 25.2937 25.6809 25.2629C25.695 25.2359 25.7128 25.1858 25.7203 25.1531C25.7278 25.1194 25.7344 25.0683 25.7344 25.0394C25.7344 25.0105 25.7278 24.9585 25.7194 24.9238C25.7119 24.8892 25.6931 24.8372 25.6772 24.8083C25.6622 24.7794 25.6303 24.7341 25.6059 24.7081C25.5806 24.6821 25.5403 24.6464 25.5141 24.6291C25.4888 24.6118 25.4419 24.5877 25.4109 24.5771C25.38 24.5655 25.3247 24.554 25.2891 24.5511C25.2453 24.5479 25.2025 24.5514 25.1606 24.5617C25.125 24.5703 25.0725 24.5886 25.0434 24.6031C25.0059 24.6214 24.9563 24.6619 24.8831 24.736C24.8241 24.7938 24.7416 24.8844 24.7003 24.9373C24.6581 24.9893 24.5953 25.0712 24.5616 25.1203C24.5278 25.1685 24.4772 25.2446 24.45 25.2899C24.4228 25.3351 24.3713 25.4276 24.3366 25.497C24.3019 25.5663 24.2559 25.6646 24.2353 25.7166C24.2138 25.7676 24.18 25.8611 24.1584 25.9227C24.1378 25.9853 24.1088 26.0864 24.0938 26.1471C24.0787 26.2078 24.0553 26.3186 24.0431 26.3928C24.03 26.4669 24.015 26.5777 24.0094 26.6384C24.0047 26.6991 24 26.8223 24 26.9129C24 27.0034 24.0047 27.1267 24.0094 27.1874C24.015 27.2481 24.0272 27.3521 24.0384 27.4186C24.0488 27.485 24.0741 27.6045 24.0938 27.6835C24.1134 27.7634 24.1491 27.8848 24.1734 27.9532C24.1978 28.0216 24.2419 28.1323 24.2709 28.1988C24.3 28.2652 24.3497 28.3645 24.3797 28.4203C24.4097 28.4762 24.4678 28.5715 24.5072 28.6322C24.5475 28.6929 24.615 28.7883 24.6591 28.8441C24.7022 28.9 24.7716 28.9819 24.8119 29.0262C24.8522 29.0705 24.93 29.1485 24.9844 29.1986C25.0388 29.2487 25.1231 29.3219 25.1719 29.3595C25.2206 29.398 25.3116 29.4635 25.3734 29.5049C25.4353 29.5463 25.545 29.6118 25.6172 29.6504C25.6894 29.6879 25.8056 29.7428 25.875 29.7717C25.9444 29.8006 26.0438 29.8372 26.0953 29.8536C26.1469 29.87 26.2313 29.894 26.2828 29.9075C26.3344 29.9201 26.4253 29.9403 26.4844 29.9509C26.5434 29.9615 26.6597 29.9769 26.7422 29.9856C26.8247 29.9933 26.9409 30 27 30C27.0591 30 27.1734 29.9933 27.2531 29.9856C27.3328 29.9778 27.4491 29.9624 27.5109 29.9509C27.5728 29.9403 27.6656 29.9201 27.7172 29.9066C27.7688 29.894 27.8512 29.87 27.9 29.8536C27.9488 29.8372 28.0416 29.8025 28.1063 29.7765C28.1709 29.7505 28.2788 29.7004 28.3453 29.6658L28.3476 29.6646C28.4135 29.6303 28.4824 29.5944 28.5 29.5829C28.5178 29.5723 28.5778 29.5338 28.6341 29.4972L28.7344 29.4317C28.8834 29.5714 28.9959 29.6773 29.0813 29.7582C29.1853 29.8555 29.2556 29.9143 29.2969 29.9364C29.3306 29.9547 29.385 29.9769 29.4188 29.9846C29.4525 29.9933 29.4984 30 29.5219 30C29.5453 30 29.5894 29.9933 29.6203 29.9856C29.6512 29.9769 29.7019 29.9576 29.7328 29.9422C29.7637 29.9268 29.8059 29.8998 29.8256 29.8825C29.8463 29.8651 29.8819 29.8247 29.9044 29.7929C29.9269 29.7611 29.9531 29.712 29.9634 29.685C29.9728 29.6571 29.985 29.6051 29.9906 29.5694C29.9963 29.5271 29.9963 29.4808 29.9906 29.4394C29.985 29.4028 29.9681 29.345 29.9522 29.3094C29.9363 29.2728 29.9119 29.2285 29.8978 29.2102C29.8828 29.1919 29.7694 29.0801 29.6447 28.9626C29.5209 28.8441 29.4188 28.7459 29.4188 28.743C29.4188 28.7401 29.4572 28.6785 29.5041 28.6062C29.5509 28.533 29.6231 28.4039 29.6644 28.3192C29.7066 28.2344 29.7609 28.1121 29.7853 28.0476C29.8106 27.9821 29.8462 27.878 29.8641 27.8164C29.8828 27.7538 29.9081 27.6575 29.9203 27.6016C29.9325 27.5457 29.9494 27.461 29.9569 27.4138C29.9653 27.3666 29.9775 27.2577 29.9859 27.173C29.9934 27.0882 30 26.9755 30 26.9225C30 26.8695 29.9934 26.7549 29.9859 26.6673C29.9784 26.5796 29.9634 26.4583 29.9522 26.3976C29.9419 26.3369 29.9231 26.2435 29.91 26.1905C29.8969 26.1375 29.8716 26.047 29.8528 25.9882C29.835 25.9294 29.8041 25.8408 29.7844 25.7907C29.7647 25.7407 29.7309 25.6597 29.7103 25.6125C29.6887 25.5653 29.6428 25.4738 29.6081 25.4103C29.5744 25.3467 29.5106 25.2407 29.4666 25.1743C29.4234 25.1078 29.3475 25.0019 29.2988 24.9383C29.2491 24.8747 29.1469 24.7591 29.0719 24.6821C28.9969 24.605 28.8919 24.5058 28.8375 24.4615C28.7831 24.4172 28.6884 24.3469 28.6266 24.3045C28.5647 24.2631 28.4681 24.2053 28.4109 24.1774C28.3538 24.1485 28.2694 24.1119 28.2234 24.0955C28.1775 24.0781 28.1053 24.057 28.0641 24.0464C28.0228 24.0367 27.9431 24.0223 27.8859 24.0136C27.8166 24.004 27.7181 23.9992 27.5859 24.0001C27.4772 24.0011 27.3656 24.0059 27.3375 24.0107ZM27.3703 24.998C27.4069 24.9893 27.4463 24.9807 27.4594 24.9787C27.4725 24.9759 27.5316 24.9739 27.5906 24.973C27.6497 24.973 27.7369 24.9778 27.7828 24.9855C27.8288 24.9922 27.8925 25.0086 27.9234 25.0211C27.9544 25.0346 28.0069 25.0606 28.0406 25.0799C28.0744 25.0992 28.1447 25.1473 28.1972 25.1878C28.2506 25.2282 28.3369 25.3053 28.3903 25.3592C28.4428 25.4141 28.515 25.495 28.5506 25.5403C28.5863 25.5856 28.6453 25.6694 28.6828 25.7281C28.7213 25.7869 28.7747 25.8794 28.8038 25.9352C28.8319 25.9911 28.8741 26.0836 28.8966 26.1423C28.9191 26.2011 28.9519 26.2955 28.9678 26.3542C28.9838 26.413 29.0063 26.5074 29.0166 26.5661C29.0306 26.6384 29.0381 26.7299 29.0409 26.8551C29.0447 26.9659 29.0419 27.0757 29.0353 27.1344C29.0297 27.1874 29.0138 27.2828 29.0016 27.3463C28.9884 27.4099 28.9584 27.5207 28.935 27.592C28.9116 27.6632 28.8675 27.774 28.8375 27.8376C28.8075 27.9012 28.7662 27.9782 28.7109 28.0659L28.5703 27.9233C28.4925 27.8443 28.3163 27.6632 28.1775 27.5197C28.0388 27.3772 27.8653 27.1941 27.7931 27.1152C27.72 27.0352 27.6169 26.9187 27.5625 26.8551C27.5081 26.7915 27.4359 26.7029 27.4022 26.6576C27.3675 26.6124 27.3103 26.5305 27.2747 26.4746C27.2391 26.4188 27.1913 26.3407 27.1688 26.3012C27.1463 26.2618 27.1097 26.1895 27.0881 26.1423C27.0666 26.0951 27.0338 26.0104 27.015 25.9545C26.9963 25.8986 26.9719 25.811 26.9625 25.759C26.9503 25.6992 26.9437 25.627 26.9437 25.5567C26.9437 25.495 26.9503 25.4228 26.9578 25.3881C26.9653 25.3554 26.985 25.3014 27.0009 25.2677C27.0178 25.234 27.0563 25.182 27.0881 25.1483C27.1313 25.104 27.1659 25.0799 27.225 25.051C27.2691 25.0298 27.3338 25.0057 27.3703 24.998Z" fill="white"/>
<defs>
<linearGradient id="paint0_linear_3531_10804" x1="-2.0475" y1="2.89399e-07" x2="33" y2="33" gradientUnits="userSpaceOnUse">
<stop stop-color="#23D99E"/>
<stop offset="0.531939" stop-color="#C6C65E"/>
<stop offset="1" stop-color="#F05053"/>
</linearGradient>
</defs>
</svg>
